PathFileType	4	(X/Y/Z)	Patient4_TMGait_0pt7_01_left_31.trc.trc
DataRate	CameraRate	NumFrames	NumMarkers	Units	OrigDataRate	OrigDataStartFrame	OrigNumFrames
84.337349397591	84.337349397591	4	33	mm	84.337349397591	36	       141
Frame#	Time	Sacral			L.Shoulder			Chest			R.Shoulder			Neck			R.ASIS			L.ASIS			R.Thigh.Superior			R.Thigh.Lateral			R.Thigh.Inferior			R.Patella			L.Thigh.Superior			L.Thigh.Lateral			L.Thigh.Inferior			L.Patella			L.Shank.Superior			L.Shank.Lateral			L.Shank.Inferior			R.Shank.Superior			R.Shank.Lateral			R.Shank.Inferior			R.Heel			R.Midfoot.Superior			R.Midfoot.Lateral			R.Toe			L.Heel			L.Midfoot.Lateral			L.Midfoot.Superior			L.Toe			L.Elbow			L.Wrist			R.Elbow			R.Wrist			
		X1	Y1	Z1	X2	Y2	Z2	X3	Y3	Z3	X4	Y4	Z4	X5	Y5	Z5	X6	Y6	Z6	X7	Y7	Z7	X8	Y8	Z8	X9	Y9	Z9	X10	Y10	Z10	X11	Y11	Z11	X12	Y12	Z12	X13	Y13	Z13	X14	Y14	Z14	X15	Y15	Z15	X16	Y16	Z16	X17	Y17	Z17	X18	Y18	Z18	X19	Y19	Z19	X20	Y20	Z20	X21	Y21	Z21	X22	Y22	Z22	X23	Y23	Z23	X24	Y24	Z24	X25	Y25	Z25	X26	Y26	Z26	X27	Y27	Z27	X28	Y28	Z28	X29	Y29	Z29	X30	Y30	Z30	X31	Y31	Z31	X32	Y32	Z32	X33	Y33	Z33	

36	36.185000000000	830.056941616821	1009.236917347670	507.578385903504	1038.366991764267	1421.875827482703	327.612677959782	1141.903779817958	1336.259880321115	481.130071954834	1079.017311373019	1421.684303246877	657.891326849532	1063.306133708809	1478.972301951583	482.363413376908	1051.844375858522	929.458133313500	622.365617525829	1036.168842093136	946.199064505523	346.826646537944	1044.376009911592	718.682842531594	605.395326805192	935.653818191959	631.111310802044	668.100593748812	1001.613767225225	556.908068784612	598.531720662858	976.285274457660	460.324955739897	614.127531307953	1107.339499960790	767.213256882479	383.376585032466	1049.703819422286	639.265310389382	310.117805658465	1147.721935463357	574.921382813966	372.252259168290	1162.052344757543	501.896246792400	375.761675213552	1137.656856739612	427.441148623336	365.248408619139	1055.141106602394	310.075590903640	310.761639664131	1114.506520717966	198.607628830421	373.489982228895	909.323679066695	391.169620188130	619.741706299222	797.294289948378	330.241071266180	678.476027125497	801.259731814324	221.353954468613	624.449614369573	612.949316566933	106.088370533275	593.945489631968	793.337977176436	105.775646195019	631.508685381821	689.464098519617	65.389543297358	663.896341089177	890.049343501485	36.758999748697	647.974705793525	996.117314772924	39.219532846937	411.263477236082	1067.446828005977	37.363432971036	328.236368105499	1151.308944464548	97.950510234735	352.936488440102	1278.831304904387	43.894003444628	319.034760483429	872.945523625364	1116.098533432366	221.345630001745	830.073996764292	856.687115958068	227.659468991505	1162.941515839971	1099.844250430166	786.932769888439	1336.740132399007	1246.238419265655	686.759739404681	
37	36.196857142857	831.236813469790	1010.519139092821	504.337175663624	1040.013944190437	1423.460965402484	325.070462034146	1143.419733382568	1337.543186003174	478.533774524541	1080.403483186195	1422.756252923472	655.506796964504	1064.853744824185	1480.211381576575	479.925652163266	1053.096996041918	930.658947405003	618.761171202095	1037.364512910791	947.527829742634	343.423800472699	1047.859579878854	720.005518988026	603.124300671599	940.508485623214	631.565146988446	666.489543228446	1008.059680404717	557.470754285316	597.692074138824	983.274037064253	459.479926372100	615.118256765517	1107.806645913291	766.909260456511	379.326033487605	1047.563042069170	638.806476328092	308.313556023232	1145.488773836456	573.935939819189	370.175996489627	1159.186474771351	501.028556515890	374.667074482295	1133.921303332603	426.709126555451	364.327535869642	1050.177279965012	310.104526879110	310.181218420257	1108.055920237200	198.230867931311	373.350855052280	913.909649815641	391.674100110325	620.698018334671	799.616390868504	334.507397122048	678.786904270497	801.254585924831	224.873069511419	626.178361879826	609.555373142441	116.501599957903	595.678904125270	789.530073730179	107.016369192311	633.142473827272	683.887560810420	71.069868379033	664.843602331140	881.941527548362	36.318109939220	647.879458857178	987.986646679398	39.316031436827	411.249147885335	1059.289294172191	37.427887925574	328.259188461589	1143.229032181383	97.944108377581	352.979882884088	1270.712516239991	43.565641965185	318.890288644468	877.116166852452	1116.294520574616	217.770448520702	843.128949186344	855.393279590964	223.926981967138	1152.540237808251	1097.592030153215	786.063842137346	1332.589496364580	1236.827369210029	687.031794840366	
38	36.208714285714	832.297290630371	1011.712259663029	501.160074985905	1041.750490359298	1424.983993907819	322.524342316753	1144.886308251014	1338.778921037821	476.047476105269	1081.546643522566	1423.764339336357	653.156537959787	1066.264217303841	1481.385679064020	477.487108411457	1054.277796186128	931.824029358116	615.268052693251	1038.498684448219	948.669558845637	340.186208899720	1051.907572941610	721.365539272148	601.006615298492	946.198911705977	631.821069219876	664.945988769888	1015.421365052355	558.006452034556	596.767284923117	991.235189471786	458.630653956132	615.816161985408	1107.940090423933	766.248252930117	375.330166148259	1045.063368451112	638.300151670890	306.428267411392	1142.769426845737	572.840965077014	368.114048304936	1155.788398385235	500.092159074431	373.393627094228	1129.702262178099	425.919913573021	363.232124665018	1044.779457491379	310.000989865222	309.539969319742	1101.409284400849	197.818560731738	373.089100568916	919.551716447820	392.131404849014	621.468964651156	803.128659795023	338.981026623283	679.106254945765	802.174365486269	228.707752408651	627.911490285854	607.337875500394	128.136294988452	597.615650798675	786.198593730153	108.553750075631	634.716536361922	678.991829124067	77.805817048572	665.930847489859	873.769111971037	35.630788201383	647.836357765545	979.809385287325	39.402224418513	411.262489648843	1051.073214615060	37.438112754070	328.290796657651	1135.113056228144	97.860511029869	353.004339024288	1262.546428964191	43.149510464261	318.757091724438	881.120545835809	1116.661833735598	214.034732587568	857.087552492310	854.481719211082	220.000593621940	1141.267294934768	1095.537753434813	784.984275685004	1328.768359375735	1225.731016834548	687.790758183941	
39	36.220571428571	833.200655954848	1012.780810484490	498.087439744241	1043.562090375107	1426.386200862708	319.997474023716	1146.281596532279	1339.901882778944	473.699359125166	1082.449519638712	1424.676772254572	650.851288278983	1067.541950402322	1482.456465285615	475.064656082424	1055.352950516598	932.910556045533	611.913088519464	1039.514079440967	949.623093042094	337.108052747466	1056.496273535534	722.781342444810	598.999829994499	952.775844445277	631.887285737717	663.444071010699	1023.689641566870	558.548424853726	595.660883180218	1000.191374570848	457.809505105345	616.086909926640	1107.754020392550	765.362331536136	371.494079318009	1042.368790976015	637.847122207599	304.453297291537	1139.680798694429	571.721039394904	366.072558098614	1151.975150769000	499.132512313291	371.929060993742	1125.112827108205	425.095364959947	361.964795490975	1039.047101072984	309.809860619676	308.803650171854	1094.607589782172	197.381185910810	372.698441570851	926.293297326557	392.547678399014	621.930262059148	807.925956112867	343.650423577476	679.381179803111	804.079718430254	232.886438331205	629.562066269890	606.476049029902	141.031407926532	599.724746067558	783.406128505171	110.524228415312	636.180657389095	674.936457340149	85.721339193431	667.153641415109	865.565053971652	34.654883311378	647.872056607049	971.589038820738	39.481955081156	411.275005149247	1042.809699052723	37.408251363907	328.307657674938	1126.962808590817	97.723019898534	352.993604843010	1254.339267446640	42.688622500741	318.629604037916	884.997592855581	1117.121282294424	210.127355254431	871.915232972654	853.995949079848	215.888761126422	1129.267353253029	1093.697157948278	783.604645702992	1325.142106835286	1212.889532835568	689.087082978229	
